<svg width="48" height="48" viewBox="0 0 48 48" fill="none" xmlns="http://www.w3.org/2000/svg">
<path fill-rule="evenodd" clip-rule="evenodd" d="M23.969 25.1111C23.822 24.7111 24.2108 24.3222 24.6109 24.4693L44.3883 31.7409C44.761 31.8779 44.8329 32.3738 44.5145 32.6111L38.2176 37.3032L44.842 43.9276C45.2325 44.3181 45.2325 44.9513 44.842 45.3418C44.4514 45.7324 43.8183 45.7324 43.4278 45.3418L36.8033 38.7174L32.1108 45.0148C31.8736 45.3332 31.3777 45.2612 31.2406 44.8885L23.969 25.1111ZM32.162 41.5989L26.9658 27.466L41.0986 32.6623L36.2705 36.2599C36.0764 36.4046 35.9043 36.5767 35.7597 36.7708L32.162 41.5989Z" fill="black"/>
<path d="M8 2C4.68629 2 2 4.68629 2 8V9H4L4 8C4 5.79086 5.79086 4 8 4H9V2H8Z" fill="black"/>
<path d="M4 15H2V21H4L4 15Z" fill="black"/>
<path d="M2 33V27H4L4 33H2Z" fill="black"/>
<path d="M2 39V40C2 43.3137 4.68629 46 8 46H9V44H8C5.79086 44 4 42.2091 4 40V39H2Z" fill="black"/>
<path d="M21 46H15V44H21V46Z" fill="black"/>
<path d="M15 4V2H21V4H15Z" fill="black"/>
<path d="M27 2V4H33V2H27Z" fill="black"/>
<path d="M39 4V2H40C43.3137 2 46 4.68629 46 8V9H44V8C44 5.79086 42.2091 4 40 4H39Z" fill="black"/>
<path d="M44 15V21H46V15H44Z" fill="black"/>
</svg>
