<svg width="49" height="48" viewBox="0 0 49 48" fill="none" xmlns="http://www.w3.org/2000/svg">
<path d="M17.791 42.25C17.791 41.4216 17.1194 40.75 16.291 40.75C15.4626 40.75 14.791 41.4216 14.791 42.25H17.791ZM38.7911 10.75C37.9627 10.75 37.2911 11.4216 37.2911 12.25C37.2911 13.0784 37.9627 13.75 38.7911 13.75V10.75ZM40.2911 15.25V41.75H43.2911V15.25H40.2911ZM38.7911 43.25H18.791V46.25H38.7911V43.25ZM18.791 43.25C18.2387 43.25 17.791 42.8023 17.791 42.25H14.791C14.791 44.4591 16.5819 46.25 18.791 46.25V43.25ZM40.2911 41.75C40.2911 42.5784 39.6196 43.25 38.7911 43.25V46.25C41.2764 46.25 43.2911 44.2353 43.2911 41.75H40.2911ZM43.2911 15.25C43.2911 12.7647 41.2764 10.75 38.7911 10.75V13.75C39.6196 13.75 40.2911 14.4216 40.2911 15.25H43.2911Z" fill="black"/>
<rect x="13.291" y="14.25" width="17" height="3" rx="1.5" fill="black"/>
<rect x="13.291" y="20.25" width="17" height="3" rx="1.5" fill="black"/>
<rect x="13.291" y="26.25" width="17" height="3" rx="1.5" fill="black"/>
<path d="M10.291 4.75H33.291C34.1194 4.75 34.791 5.42157 34.791 6.25V36.25C34.791 37.0784 34.1194 37.75 33.291 37.75H10.291C9.46259 37.75 8.79102 37.0784 8.79102 36.25V6.25C8.79102 5.42157 9.46259 4.75 10.291 4.75Z" stroke="black" stroke-width="3"/>
</svg>
