<svg width="48" height="48" viewBox="0 0 48 48" fill="none" xmlns="http://www.w3.org/2000/svg">
<path fill-rule="evenodd" clip-rule="evenodd" d="M5.72465 31.6688C5.33017 32.0633 5.0535 32.5599 4.92572 33.103L2.22761 44.57C2.14829 44.9071 2.24903 45.2613 2.49392 45.5061C2.7388 45.751 3.09295 45.8518 3.43006 45.7724L14.8971 43.0743C15.4401 42.9466 15.9368 42.6699 16.3313 42.2754L38.8744 19.7322L28.2678 9.1257L5.72465 31.6688ZM29.682 7.71148L40.2886 18.318L44.9203 13.6863C46.0919 12.5148 46.0919 10.6153 44.9203 9.44369L38.5564 3.07973C37.3848 1.90816 35.4853 1.90816 34.3137 3.07973L29.682 7.71148Z" fill="black"/>
</svg>
