<svg width="48" height="48" viewBox="0 0 48 48" fill="none" xmlns="http://www.w3.org/2000/svg">
<path fill-rule="evenodd" clip-rule="evenodd" d="M19 2C16.2386 2 14 4.23858 14 7V9H3C2.44772 9 2 9.44772 2 10C2 10.5523 2.44772 11 3 11H8V41C8 43.7614 10.2386 46 13 46H35C37.7614 46 40 43.7614 40 41V11H45C45.5523 11 46 10.5523 46 10C46 9.44772 45.5523 9 45 9H34V7C34 4.23858 31.7614 2 29 2H19ZM32 9V7C32 5.34315 30.6569 4 29 4H19C17.3431 4 16 5.34315 16 7V9H32ZM20 19.5839C20 19.0316 19.5523 18.5839 19 18.5839C18.4477 18.5839 18 19.0316 18 19.5839V34.5839C18 35.1361 18.4477 35.5839 19 35.5839C19.5523 35.5839 20 35.1361 20 34.5839V19.5839ZM30 19.5839C30 19.0316 29.5523 18.5839 29 18.5839C28.4477 18.5839 28 19.0316 28 19.5839V34.5839C28 35.1361 28.4477 35.5839 29 35.5839C29.5523 35.5839 30 35.1361 30 34.5839V19.5839Z" fill="black"/>
</svg>
